# MagicaVoxel @ Ephtracy

# group
o 

# material
mtllib barrel01.mtl
usemtl palette

# normals
vn -1 0 0
vn 1 0 0
vn 0 0 1
vn 0 0 -1
vn 0 -1 0
vn 0 1 0

# texcoords
vt 0.115234 0.5
vt 0.806641 0.5
vt 0.837891 0.5

# verts
v -0.4 0.2 0.2
v -0.4 0.2 -0.2
v -0.4 0.3 0.2
v -0.4 0.3 0.1
v -0.4 0.3 0
v -0.4 0.3 -0.1
v -0.4 0.3 -0.2
v -0.4 0.6 0.2
v -0.4 0.6 0.1
v -0.4 0.6 0
v -0.4 0.6 -0.1
v -0.4 0.6 -0.2
v -0.4 0.7 0.2
v -0.4 0.7 -0.2
v -0.3 0.1 0.2
v -0.3 0.1 0.1
v -0.3 0.1 0
v -0.3 0.1 -0.1
v -0.3 0.1 -0.2
v -0.3 0.2 0.3
v -0.3 0.2 0.2
v -0.3 0.2 0.1
v -0.3 0.2 0
v -0.3 0.2 -0.1
v -0.3 0.2 -0.2
v -0.3 0.2 -0.3
v -0.3 0.3 0.3
v -0.3 0.3 0.2
v -0.3 0.3 -0.2
v -0.3 0.3 -0.3
v -0.3 0.6 0.3
v -0.3 0.6 0.2
v -0.3 0.6 -0.2
v -0.3 0.6 -0.3
v -0.3 0.7 0.3
v -0.3 0.7 0.2
v -0.3 0.7 0.1
v -0.3 0.7 0
v -0.3 0.7 -0.1
v -0.3 0.7 -0.2
v -0.3 0.7 -0.3
v -0.3 0.8 0.2
v -0.3 0.8 0.1
v -0.3 0.8 0
v -0.3 0.8 -0.1
v -0.3 0.8 -0.2
v -0.2 0.1 0.3
v -0.2 0.1 0.2
v -0.2 0.1 -0.2
v -0.2 0.1 -0.3
v -0.2 0.2 0.4
v -0.2 0.2 0.3
v -0.2 0.2 0.2
v -0.2 0.2 -0.2
v -0.2 0.2 -0.3
v -0.2 0.2 -0.4
v -0.2 0.3 0.4
v -0.2 0.3 0.3
v -0.2 0.3 -0.3
v -0.2 0.3 -0.4
v -0.2 0.6 0.4
v -0.2 0.6 0.3
v -0.2 0.6 -0.3
v -0.2 0.6 -0.4
v -0.2 0.7 0.4
v -0.2 0.7 0.3
v -0.2 0.7 0.2
v -0.2 0.7 -0.2
v -0.2 0.7 -0.3
v -0.2 0.7 -0.4
v -0.2 0.8 0.3
v -0.2 0.8 0.2
v -0.2 0.8 -0.2
v -0.2 0.8 -0.3
v 0.2 0.1 0.3
v 0.2 0.1 0.2
v 0.2 0.1 -0.2
v 0.2 0.1 -0.3
v 0.2 0.2 0.4
v 0.2 0.2 0.3
v 0.2 0.2 0.2
v 0.2 0.2 -0.2
v 0.2 0.2 -0.3
v 0.2 0.2 -0.4
v 0.2 0.3 0.4
v 0.2 0.3 0.3
v 0.2 0.3 -0.3
v 0.2 0.3 -0.4
v 0.2 0.6 0.4
v 0.2 0.6 0.3
v 0.2 0.6 -0.3
v 0.2 0.6 -0.4
v 0.2 0.7 0.4
v 0.2 0.7 0.3
v 0.2 0.7 0.2
v 0.2 0.7 -0.2
v 0.2 0.7 -0.3
v 0.2 0.7 -0.4
v 0.2 0.8 0.3
v 0.2 0.8 0.2
v 0.2 0.8 -0.2
v 0.2 0.8 -0.3
v 0.3 0.1 0.2
v 0.3 0.1 0.1
v 0.3 0.1 0
v 0.3 0.1 -0.1
v 0.3 0.1 -0.2
v 0.3 0.2 0.3
v 0.3 0.2 0.2
v 0.3 0.2 0.1
v 0.3 0.2 0
v 0.3 0.2 -0.1
v 0.3 0.2 -0.2
v 0.3 0.2 -0.3
v 0.3 0.3 0.3
v 0.3 0.3 0.2
v 0.3 0.3 -0.2
v 0.3 0.3 -0.3
v 0.3 0.6 0.3
v 0.3 0.6 0.2
v 0.3 0.6 -0.2
v 0.3 0.6 -0.3
v 0.3 0.7 0.3
v 0.3 0.7 0.2
v 0.3 0.7 0.1
v 0.3 0.7 0
v 0.3 0.7 -0.1
v 0.3 0.7 -0.2
v 0.3 0.7 -0.3
v 0.3 0.8 0.2
v 0.3 0.8 0.1
v 0.3 0.8 0
v 0.3 0.8 -0.1
v 0.3 0.8 -0.2
v 0.4 0.2 0.2
v 0.4 0.2 -0.2
v 0.4 0.3 0.2
v 0.4 0.3 0.1
v 0.4 0.3 0
v 0.4 0.3 -0.1
v 0.4 0.3 -0.2
v 0.4 0.6 0.2
v 0.4 0.6 0.1
v 0.4 0.6 0
v 0.4 0.6 -0.1
v 0.4 0.6 -0.2
v 0.4 0.7 0.2
v 0.4 0.7 -0.2
v -0.2 0.2 0.4
v -0.2 0.3 0.4
v -0.2 0.6 0.4
v -0.2 0.7 0.4
v -0.1 0.3 0.4
v -0.1 0.6 0.4
v 0 0.3 0.4
v 0 0.6 0.4
v 0.1 0.3 0.4
v 0.1 0.6 0.4
v 0.2 0.2 0.4
v 0.2 0.3 0.4
v 0.2 0.6 0.4
v 0.2 0.7 0.4
v -0.3 0.2 0.3
v -0.3 0.3 0.3
v -0.3 0.6 0.3
v -0.3 0.7 0.3
v -0.2 0.1 0.3
v -0.2 0.2 0.3
v -0.2 0.3 0.3
v -0.2 0.6 0.3
v -0.2 0.7 0.3
v -0.2 0.8 0.3
v 0.2 0.1 0.3
v 0.2 0.2 0.3
v 0.2 0.3 0.3
v 0.2 0.6 0.3
v 0.2 0.7 0.3
v 0.2 0.8 0.3
v 0.3 0.2 0.3
v 0.3 0.3 0.3
v 0.3 0.6 0.3
v 0.3 0.7 0.3
v -0.4 0.2 0.2
v -0.4 0.3 0.2
v -0.4 0.6 0.2
v -0.4 0.7 0.2
v -0.3 0.1 0.2
v -0.3 0.2 0.2
v -0.3 0.3 0.2
v -0.3 0.6 0.2
v -0.3 0.7 0.2
v -0.3 0.8 0.2
v -0.2 0.1 0.2
v -0.2 0.2 0.2
v -0.2 0.7 0.2
v -0.2 0.8 0.2
v 0.2 0.1 0.2
v 0.2 0.2 0.2
v 0.2 0.7 0.2
v 0.2 0.8 0.2
v 0.3 0.1 0.2
v 0.3 0.2 0.2
v 0.3 0.3 0.2
v 0.3 0.6 0.2
v 0.3 0.7 0.2
v 0.3 0.8 0.2
v 0.4 0.2 0.2
v 0.4 0.3 0.2
v 0.4 0.6 0.2
v 0.4 0.7 0.2
v -0.4 0.2 -0.2
v -0.4 0.3 -0.2
v -0.4 0.6 -0.2
v -0.4 0.7 -0.2
v -0.3 0.1 -0.2
v -0.3 0.2 -0.2
v -0.3 0.3 -0.2
v -0.3 0.6 -0.2
v -0.3 0.7 -0.2
v -0.3 0.8 -0.2
v -0.2 0.1 -0.2
v -0.2 0.2 -0.2
v -0.2 0.7 -0.2
v -0.2 0.8 -0.2
v 0.2 0.1 -0.2
v 0.2 0.2 -0.2
v 0.2 0.7 -0.2
v 0.2 0.8 -0.2
v 0.3 0.1 -0.2
v 0.3 0.2 -0.2
v 0.3 0.3 -0.2
v 0.3 0.6 -0.2
v 0.3 0.7 -0.2
v 0.3 0.8 -0.2
v 0.4 0.2 -0.2
v 0.4 0.3 -0.2
v 0.4 0.6 -0.2
v 0.4 0.7 -0.2
v -0.3 0.2 -0.3
v -0.3 0.3 -0.3
v -0.3 0.6 -0.3
v -0.3 0.7 -0.3
v -0.2 0.1 -0.3
v -0.2 0.2 -0.3
v -0.2 0.3 -0.3
v -0.2 0.6 -0.3
v -0.2 0.7 -0.3
v -0.2 0.8 -0.3
v 0.2 0.1 -0.3
v 0.2 0.2 -0.3
v 0.2 0.3 -0.3
v 0.2 0.6 -0.3
v 0.2 0.7 -0.3
v 0.2 0.8 -0.3
v 0.3 0.2 -0.3
v 0.3 0.3 -0.3
v 0.3 0.6 -0.3
v 0.3 0.7 -0.3
v -0.2 0.2 -0.4
v -0.2 0.3 -0.4
v -0.2 0.6 -0.4
v -0.2 0.7 -0.4
v -0.1 0.3 -0.4
v -0.1 0.6 -0.4
v 0 0.3 -0.4
v 0 0.6 -0.4
v 0.1 0.3 -0.4
v 0.1 0.6 -0.4
v 0.2 0.2 -0.4
v 0.2 0.3 -0.4
v 0.2 0.6 -0.4
v 0.2 0.7 -0.4
v -0.2 0.1 0.3
v 0.2 0.1 0.3
v -0.3 0.1 0.2
v -0.2 0.1 0.2
v 0.2 0.1 0.2
v 0.3 0.1 0.2
v -0.3 0.1 0.1
v 0.3 0.1 0.1
v -0.3 0.1 0
v 0.3 0.1 0
v -0.3 0.1 -0.1
v 0.3 0.1 -0.1
v -0.3 0.1 -0.2
v -0.2 0.1 -0.2
v 0.2 0.1 -0.2
v 0.3 0.1 -0.2
v -0.2 0.1 -0.3
v 0.2 0.1 -0.3
v -0.2 0.2 0.4
v 0.2 0.2 0.4
v -0.3 0.2 0.3
v -0.2 0.2 0.3
v 0.2 0.2 0.3
v 0.3 0.2 0.3
v -0.4 0.2 0.2
v -0.3 0.2 0.2
v -0.2 0.2 0.2
v 0.2 0.2 0.2
v 0.3 0.2 0.2
v 0.4 0.2 0.2
v -0.3 0.2 0.1
v 0.3 0.2 0.1
v -0.3 0.2 0
v 0.3 0.2 0
v -0.3 0.2 -0.1
v 0.3 0.2 -0.1
v -0.4 0.2 -0.2
v -0.3 0.2 -0.2
v -0.2 0.2 -0.2
v 0.2 0.2 -0.2
v 0.3 0.2 -0.2
v 0.4 0.2 -0.2
v -0.3 0.2 -0.3
v -0.2 0.2 -0.3
v 0.2 0.2 -0.3
v 0.3 0.2 -0.3
v -0.2 0.2 -0.4
v 0.2 0.2 -0.4
v -0.2 0.7 0.4
v 0.2 0.7 0.4
v -0.3 0.7 0.3
v -0.2 0.7 0.3
v 0.2 0.7 0.3
v 0.3 0.7 0.3
v -0.4 0.7 0.2
v -0.3 0.7 0.2
v -0.2 0.7 0.2
v 0.2 0.7 0.2
v 0.3 0.7 0.2
v 0.4 0.7 0.2
v -0.3 0.7 0.1
v 0.3 0.7 0.1
v -0.3 0.7 0
v 0.3 0.7 0
v -0.3 0.7 -0.1
v 0.3 0.7 -0.1
v -0.4 0.7 -0.2
v -0.3 0.7 -0.2
v -0.2 0.7 -0.2
v 0.2 0.7 -0.2
v 0.3 0.7 -0.2
v 0.4 0.7 -0.2
v -0.3 0.7 -0.3
v -0.2 0.7 -0.3
v 0.2 0.7 -0.3
v 0.3 0.7 -0.3
v -0.2 0.7 -0.4
v 0.2 0.7 -0.4
v -0.2 0.8 0.3
v 0.2 0.8 0.3
v -0.3 0.8 0.2
v -0.2 0.8 0.2
v 0.2 0.8 0.2
v 0.3 0.8 0.2
v -0.3 0.8 0.1
v 0.3 0.8 0.1
v -0.3 0.8 0
v 0.3 0.8 0
v -0.3 0.8 -0.1
v 0.3 0.8 -0.1
v -0.3 0.8 -0.2
v -0.2 0.8 -0.2
v 0.2 0.8 -0.2
v 0.3 0.8 -0.2
v -0.2 0.8 -0.3
v 0.2 0.8 -0.3

# faces
f 3/1/1 2/1/1 1/1/1
f 4/1/1 2/1/1 3/1/1
f 5/1/1 2/1/1 4/1/1
f 6/1/1 2/1/1 5/1/1
f 7/1/1 2/1/1 6/1/1
f 8/2/1 4/2/1 3/2/1
f 9/3/1 5/3/1 4/3/1
f 9/2/1 4/2/1 8/2/1
f 10/2/1 6/2/1 5/2/1
f 10/3/1 5/3/1 9/3/1
f 11/3/1 7/3/1 6/3/1
f 11/2/1 6/2/1 10/2/1
f 12/3/1 7/3/1 11/3/1
f 13/1/1 9/1/1 8/1/1
f 13/1/1 10/1/1 9/1/1
f 13/1/1 12/1/1 11/1/1
f 13/1/1 11/1/1 10/1/1
f 14/1/1 12/1/1 13/1/1
f 21/3/1 16/3/1 15/3/1
f 22/2/1 17/2/1 16/2/1
f 22/3/1 16/3/1 21/3/1
f 23/3/1 18/3/1 17/3/1
f 23/2/1 17/2/1 22/2/1
f 24/2/1 19/2/1 18/2/1
f 24/3/1 18/3/1 23/3/1
f 25/2/1 19/2/1 24/2/1
f 27/1/1 21/1/1 20/1/1
f 28/1/1 21/1/1 27/1/1
f 29/1/1 26/1/1 25/1/1
f 30/1/1 26/1/1 29/1/1
f 31/3/1 28/3/1 27/3/1
f 32/3/1 28/3/1 31/3/1
f 33/2/1 30/2/1 29/2/1
f 34/2/1 30/2/1 33/2/1
f 35/1/1 32/1/1 31/1/1
f 36/1/1 32/1/1 35/1/1
f 40/1/1 34/1/1 33/1/1
f 41/1/1 34/1/1 40/1/1
f 42/3/1 37/3/1 36/3/1
f 43/2/1 38/2/1 37/2/1
f 43/3/1 37/3/1 42/3/1
f 44/3/1 39/3/1 38/3/1
f 44/2/1 38/2/1 43/2/1
f 45/2/1 40/2/1 39/2/1
f 45/3/1 39/3/1 44/3/1
f 46/2/1 40/2/1 45/2/1
f 52/2/1 48/2/1 47/2/1
f 53/2/1 48/2/1 52/2/1
f 54/3/1 50/3/1 49/3/1
f 55/3/1 50/3/1 54/3/1
f 57/1/1 52/1/1 51/1/1
f 58/1/1 52/1/1 57/1/1
f 59/1/1 56/1/1 55/1/1
f 60/1/1 56/1/1 59/1/1
f 61/2/1 58/2/1 57/2/1
f 62/2/1 58/2/1 61/2/1
f 63/3/1 60/3/1 59/3/1
f 64/3/1 60/3/1 63/3/1
f 65/1/1 62/1/1 61/1/1
f 66/1/1 62/1/1 65/1/1
f 69/1/1 64/1/1 63/1/1
f 70/1/1 64/1/1 69/1/1
f 71/2/1 67/2/1 66/2/1
f 72/2/1 67/2/1 71/2/1
f 73/3/1 69/3/1 68/3/1
f 74/3/1 69/3/1 73/3/1
f 75/2/2 76/2/2 80/2/2
f 80/2/2 76/2/2 81/2/2
f 77/3/2 78/3/2 82/3/2
f 82/3/2 78/3/2 83/3/2
f 79/1/2 80/1/2 85/1/2
f 85/1/2 80/1/2 86/1/2
f 83/1/2 84/1/2 87/1/2
f 87/1/2 84/1/2 88/1/2
f 85/3/2 86/3/2 89/3/2
f 89/3/2 86/3/2 90/3/2
f 87/2/2 88/2/2 91/2/2
f 91/2/2 88/2/2 92/2/2
f 89/1/2 90/1/2 93/1/2
f 93/1/2 90/1/2 94/1/2
f 91/1/2 92/1/2 97/1/2
f 97/1/2 92/1/2 98/1/2
f 94/2/2 95/2/2 99/2/2
f 99/2/2 95/2/2 100/2/2
f 96/3/2 97/3/2 101/3/2
f 101/3/2 97/3/2 102/3/2
f 103/3/2 104/3/2 109/3/2
f 104/2/2 105/2/2 110/2/2
f 109/3/2 104/3/2 110/3/2
f 105/3/2 106/3/2 111/3/2
f 110/2/2 105/2/2 111/2/2
f 106/2/2 107/2/2 112/2/2
f 111/3/2 106/3/2 112/3/2
f 112/2/2 107/2/2 113/2/2
f 108/1/2 109/1/2 115/1/2
f 115/1/2 109/1/2 116/1/2
f 113/1/2 114/1/2 117/1/2
f 117/1/2 114/1/2 118/1/2
f 115/2/2 116/2/2 119/2/2
f 119/2/2 116/2/2 120/2/2
f 117/3/2 118/3/2 121/3/2
f 121/3/2 118/3/2 122/3/2
f 119/1/2 120/1/2 123/1/2
f 123/1/2 120/1/2 124/1/2
f 121/1/2 122/1/2 128/1/2
f 128/1/2 122/1/2 129/1/2
f 124/3/2 125/3/2 130/3/2
f 125/2/2 126/2/2 131/2/2
f 130/3/2 125/3/2 131/3/2
f 126/3/2 127/3/2 132/3/2
f 131/2/2 126/2/2 132/2/2
f 127/2/2 128/2/2 133/2/2
f 132/3/2 127/3/2 133/3/2
f 133/2/2 128/2/2 134/2/2
f 135/1/2 136/1/2 137/1/2
f 137/1/2 136/1/2 138/1/2
f 138/1/2 136/1/2 139/1/2
f 139/1/2 136/1/2 140/1/2
f 140/1/2 136/1/2 141/1/2
f 137/3/2 138/3/2 142/3/2
f 138/2/2 139/2/2 143/2/2
f 142/3/2 138/3/2 143/3/2
f 139/3/2 140/3/2 144/3/2
f 143/2/2 139/2/2 144/2/2
f 140/2/2 141/2/2 145/2/2
f 144/3/2 140/3/2 145/3/2
f 145/2/2 141/2/2 146/2/2
f 142/1/2 143/1/2 147/1/2
f 143/1/2 144/1/2 147/1/2
f 145/1/2 146/1/2 147/1/2
f 144/1/2 145/1/2 147/1/2
f 147/1/2 146/1/2 148/1/2
f 153/1/3 150/1/3 149/1/3
f 153/2/3 151/2/3 150/2/3
f 154/1/3 152/1/3 151/1/3
f 154/2/3 151/2/3 153/2/3
f 155/1/3 153/1/3 149/1/3
f 155/3/3 154/3/3 153/3/3
f 156/1/3 152/1/3 154/1/3
f 156/3/3 154/3/3 155/3/3
f 157/1/3 155/1/3 149/1/3
f 157/2/3 156/2/3 155/2/3
f 158/1/3 152/1/3 156/1/3
f 158/2/3 156/2/3 157/2/3
f 159/1/3 157/1/3 149/1/3
f 160/3/3 158/3/3 157/3/3
f 160/1/3 157/1/3 159/1/3
f 161/1/3 152/1/3 158/1/3
f 161/3/3 158/3/3 160/3/3
f 162/1/3 152/1/3 161/1/3
f 168/1/3 164/1/3 163/1/3
f 169/3/3 165/3/3 164/3/3
f 169/1/3 164/1/3 168/1/3
f 170/1/3 166/1/3 165/1/3
f 170/3/3 165/3/3 169/3/3
f 171/1/3 166/1/3 170/1/3
f 173/2/3 168/2/3 167/2/3
f 174/2/3 168/2/3 173/2/3
f 177/2/3 172/2/3 171/2/3
f 178/2/3 172/2/3 177/2/3
f 179/1/3 175/1/3 174/1/3
f 180/2/3 176/2/3 175/2/3
f 180/1/3 175/1/3 179/1/3
f 181/1/3 177/1/3 176/1/3
f 181/2/3 176/2/3 180/2/3
f 182/1/3 177/1/3 181/1/3
f 188/1/3 184/1/3 183/1/3
f 189/2/3 185/2/3 184/2/3
f 189/1/3 184/1/3 188/1/3
f 190/1/3 186/1/3 185/1/3
f 190/2/3 185/2/3 189/2/3
f 191/1/3 186/1/3 190/1/3
f 193/3/3 188/3/3 187/3/3
f 194/3/3 188/3/3 193/3/3
f 195/3/3 192/3/3 191/3/3
f 196/3/3 192/3/3 195/3/3
f 201/3/3 198/3/3 197/3/3
f 202/3/3 198/3/3 201/3/3
f 205/3/3 200/3/3 199/3/3
f 206/3/3 200/3/3 205/3/3
f 207/1/3 203/1/3 202/1/3
f 208/3/3 204/3/3 203/3/3
f 208/1/3 203/1/3 207/1/3
f 209/1/3 205/1/3 204/1/3
f 209/3/3 204/3/3 208/3/3
f 210/1/3 205/1/3 209/1/3
f 211/1/4 212/1/4 216/1/4
f 212/3/4 213/3/4 217/3/4
f 216/1/4 212/1/4 217/1/4
f 213/1/4 214/1/4 218/1/4
f 217/3/4 213/3/4 218/3/4
f 218/1/4 214/1/4 219/1/4
f 215/2/4 216/2/4 221/2/4
f 221/2/4 216/2/4 222/2/4
f 219/2/4 220/2/4 223/2/4
f 223/2/4 220/2/4 224/2/4
f 225/2/4 226/2/4 229/2/4
f 229/2/4 226/2/4 230/2/4
f 227/2/4 228/2/4 233/2/4
f 233/2/4 228/2/4 234/2/4
f 230/1/4 231/1/4 235/1/4
f 231/2/4 232/2/4 236/2/4
f 235/1/4 231/1/4 236/1/4
f 232/1/4 233/1/4 237/1/4
f 236/2/4 232/2/4 237/2/4
f 237/1/4 233/1/4 238/1/4
f 239/1/4 240/1/4 244/1/4
f 240/2/4 241/2/4 245/2/4
f 244/1/4 240/1/4 245/1/4
f 241/1/4 242/1/4 246/1/4
f 245/2/4 241/2/4 246/2/4
f 246/1/4 242/1/4 247/1/4
f 243/3/4 244/3/4 249/3/4
f 249/3/4 244/3/4 250/3/4
f 247/3/4 248/3/4 253/3/4
f 253/3/4 248/3/4 254/3/4
f 250/1/4 251/1/4 255/1/4
f 251/3/4 252/3/4 256/3/4
f 255/1/4 251/1/4 256/1/4
f 252/1/4 253/1/4 257/1/4
f 256/3/4 252/3/4 257/3/4
f 257/1/4 253/1/4 258/1/4
f 259/1/4 260/1/4 263/1/4
f 260/3/4 261/3/4 263/3/4
f 261/1/4 262/1/4 264/1/4
f 263/3/4 261/3/4 264/3/4
f 259/1/4 263/1/4 265/1/4
f 263/2/4 264/2/4 265/2/4
f 264/1/4 262/1/4 266/1/4
f 265/2/4 264/2/4 266/2/4
f 259/1/4 265/1/4 267/1/4
f 265/3/4 266/3/4 267/3/4
f 266/1/4 262/1/4 268/1/4
f 267/3/4 266/3/4 268/3/4
f 259/1/4 267/1/4 269/1/4
f 267/2/4 268/2/4 270/2/4
f 269/1/4 267/1/4 270/1/4
f 268/1/4 262/1/4 271/1/4
f 270/2/4 268/2/4 271/2/4
f 271/1/4 262/1/4 272/1/4
f 276/2/5 274/2/5 273/2/5
f 277/2/5 274/2/5 276/2/5
f 279/3/5 276/3/5 275/3/5
f 279/3/5 278/3/5 277/3/5
f 279/3/5 277/3/5 276/3/5
f 280/3/5 278/3/5 279/3/5
f 281/2/5 280/2/5 279/2/5
f 282/2/5 280/2/5 281/2/5
f 283/3/5 282/3/5 281/3/5
f 284/3/5 282/3/5 283/3/5
f 285/2/5 284/2/5 283/2/5
f 286/2/5 284/2/5 285/2/5
f 287/2/5 284/2/5 286/2/5
f 288/2/5 284/2/5 287/2/5
f 289/3/5 287/3/5 286/3/5
f 290/3/5 287/3/5 289/3/5
f 294/1/5 292/1/5 291/1/5
f 295/1/5 292/1/5 294/1/5
f 298/1/5 294/1/5 293/1/5
f 299/1/5 294/1/5 298/1/5
f 300/1/5 296/1/5 295/1/5
f 301/1/5 296/1/5 300/1/5
f 303/1/5 298/1/5 297/1/5
f 304/1/5 302/1/5 301/1/5
f 305/1/5 303/1/5 297/1/5
f 306/1/5 302/1/5 304/1/5
f 307/1/5 305/1/5 297/1/5
f 308/1/5 302/1/5 306/1/5
f 309/1/5 307/1/5 297/1/5
f 310/1/5 307/1/5 309/1/5
f 313/1/5 302/1/5 308/1/5
f 314/1/5 302/1/5 313/1/5
f 315/1/5 311/1/5 310/1/5
f 316/1/5 311/1/5 315/1/5
f 317/1/5 313/1/5 312/1/5
f 318/1/5 313/1/5 317/1/5
f 319/1/5 317/1/5 316/1/5
f 320/1/5 317/1/5 319/1/5
f 321/1/6 322/1/6 324/1/6
f 324/1/6 322/1/6 325/1/6
f 323/1/6 324/1/6 328/1/6
f 328/1/6 324/1/6 329/1/6
f 325/1/6 326/1/6 330/1/6
f 330/1/6 326/1/6 331/1/6
f 327/1/6 328/1/6 333/1/6
f 331/1/6 332/1/6 334/1/6
f 327/1/6 333/1/6 335/1/6
f 334/1/6 332/1/6 336/1/6
f 327/1/6 335/1/6 337/1/6
f 336/1/6 332/1/6 338/1/6
f 327/1/6 337/1/6 339/1/6
f 339/1/6 337/1/6 340/1/6
f 338/1/6 332/1/6 343/1/6
f 343/1/6 332/1/6 344/1/6
f 340/1/6 341/1/6 345/1/6
f 345/1/6 341/1/6 346/1/6
f 342/1/6 343/1/6 347/1/6
f 347/1/6 343/1/6 348/1/6
f 346/1/6 347/1/6 349/1/6
f 349/1/6 347/1/6 350/1/6
f 351/2/6 352/2/6 354/2/6
f 354/2/6 352/2/6 355/2/6
f 353/3/6 354/3/6 357/3/6
f 355/3/6 356/3/6 357/3/6
f 354/3/6 355/3/6 357/3/6
f 357/3/6 356/3/6 358/3/6
f 357/2/6 358/2/6 359/2/6
f 359/2/6 358/2/6 360/2/6
f 359/3/6 360/3/6 361/3/6
f 361/3/6 360/3/6 362/3/6
f 361/2/6 362/2/6 363/2/6
f 363/2/6 362/2/6 364/2/6
f 364/2/6 362/2/6 365/2/6
f 365/2/6 362/2/6 366/2/6
f 364/3/6 365/3/6 367/3/6
f 367/3/6 365/3/6 368/3/6
